<mxfile host="Electron" modified="2024-01-27T15:31:23.830Z" agent="Mozilla/5.0 (Windows NT 10.0; Win64; x64) AppleWebKit/537.36 (KHTML, like Gecko) draw.io/21.2.1 Chrome/112.0.5615.87 Electron/24.1.2 Safari/537.36" etag="ppwMo0ROKOjkfqQlrasX" version="21.2.1" type="device">
  <diagram id="R2lEEEUBdFMjLlhIrx00" name="Page-1">
    <mxGraphModel dx="1652" dy="2043" grid="1" gridSize="10" guides="1" tooltips="1" connect="1" arrows="1" fold="1" page="1" pageScale="1" pageWidth="850" pageHeight="1100" math="0" shadow="0" extFonts="Permanent Marker^https://fonts.googleapis.com/css?family=Permanent+Marker">
      <root>
        <mxCell id="0" />
        <mxCell id="1" parent="0" />
        <mxCell id="jaV6gS-NNXWnODVbYKLH-84" value="Patient" style="swimlane;childLayout=stackLayout;horizontal=1;startSize=40;horizontalStack=0;rounded=1;fontSize=14;fontStyle=0;strokeWidth=2;resizeParent=0;resizeLast=1;shadow=0;dashed=0;align=center;arcSize=4;whiteSpace=wrap;html=1;points=[[0,0,0,0,0],[0,0.25,0,0,0],[0,0.5,0,0,0],[0,0.75,0,0,0],[0,1,0,0,0],[0.25,0,0,0,0],[0.25,1,0,0,0],[0.5,0,0,0,0],[0.5,1,0,0,0],[0.75,0,0,0,0],[0.75,1,0,0,0],[1,0,0,0,0],[1,0.25,0,0,0],[1,0.5,0,0,0],[1,0.75,0,0,0],[1,1,0,0,0]];" parent="1" vertex="1">
          <mxGeometry x="-780" y="-21" width="170" height="241" as="geometry" />
        </mxCell>
        <mxCell id="jaV6gS-NNXWnODVbYKLH-85" value="+patient_id int&lt;br&gt;&lt;br&gt;+pname varchar2(35)&lt;br&gt;&lt;br&gt;+age int&lt;br&gt;&lt;br&gt;+gender char(1) default &#39;m&#39;&lt;br&gt;&lt;br&gt;+d_id int&lt;br&gt;&lt;br&gt;+medicine_id int&lt;br&gt;&lt;br&gt;+test_id int" style="align=left;strokeColor=none;fillColor=none;spacingLeft=4;fontSize=12;verticalAlign=top;resizable=0;rotatable=0;part=1;html=1;" parent="jaV6gS-NNXWnODVbYKLH-84" vertex="1">
          <mxGeometry y="40" width="170" height="201" as="geometry" />
        </mxCell>
        <mxCell id="jaV6gS-NNXWnODVbYKLH-86" value="Doctor" style="swimlane;childLayout=stackLayout;horizontal=1;startSize=50;horizontalStack=0;rounded=1;fontSize=14;fontStyle=0;strokeWidth=2;resizeParent=0;resizeLast=1;shadow=0;dashed=0;align=center;arcSize=4;whiteSpace=wrap;html=1;" parent="1" vertex="1">
          <mxGeometry x="-181" y="40" width="160" height="150" as="geometry" />
        </mxCell>
        <mxCell id="jaV6gS-NNXWnODVbYKLH-87" value="+d_id int&lt;br&gt;&lt;br&gt;+dname varchar2(35)&lt;br&gt;&lt;br&gt;+specialization varchar2(25)" style="align=left;strokeColor=none;fillColor=none;spacingLeft=4;fontSize=12;verticalAlign=top;resizable=0;rotatable=0;part=1;html=1;" parent="jaV6gS-NNXWnODVbYKLH-86" vertex="1">
          <mxGeometry y="50" width="160" height="100" as="geometry" />
        </mxCell>
        <mxCell id="jaV6gS-NNXWnODVbYKLH-88" value="Test" style="swimlane;childLayout=stackLayout;horizontal=1;startSize=50;horizontalStack=0;rounded=1;fontSize=14;fontStyle=0;strokeWidth=2;resizeParent=0;resizeLast=1;shadow=0;dashed=0;align=center;arcSize=4;whiteSpace=wrap;html=1;" parent="1" vertex="1">
          <mxGeometry x="-200" y="380" width="160" height="160" as="geometry" />
        </mxCell>
        <mxCell id="jaV6gS-NNXWnODVbYKLH-89" value="+test_id int&lt;br&gt;&lt;br&gt;+tname varchar2(30)&lt;br&gt;&lt;br&gt;+tdate date&lt;br&gt;&lt;br&gt;+tstatus varchar(15)" style="align=left;strokeColor=none;fillColor=none;spacingLeft=4;fontSize=12;verticalAlign=top;resizable=0;rotatable=0;part=1;html=1;" parent="jaV6gS-NNXWnODVbYKLH-88" vertex="1">
          <mxGeometry y="50" width="160" height="110" as="geometry" />
        </mxCell>
        <mxCell id="jaV6gS-NNXWnODVbYKLH-93" value="Medicine" style="swimlane;childLayout=stackLayout;horizontal=1;startSize=50;horizontalStack=0;rounded=1;fontSize=14;fontStyle=0;strokeWidth=2;resizeParent=0;resizeLast=1;shadow=0;dashed=0;align=center;arcSize=4;whiteSpace=wrap;html=1;" parent="1" vertex="1">
          <mxGeometry x="-530" y="390" width="160" height="160" as="geometry" />
        </mxCell>
        <mxCell id="jaV6gS-NNXWnODVbYKLH-94" value="+medicine_id int&lt;br&gt;&lt;br&gt;+mname varchar2(40)&lt;br&gt;&lt;br&gt;+dosage varchar2(20)&lt;br&gt;&lt;br&gt;+expiration date" style="align=left;strokeColor=none;fillColor=none;spacingLeft=4;fontSize=12;verticalAlign=top;resizable=0;rotatable=0;part=1;html=1;" parent="jaV6gS-NNXWnODVbYKLH-93" vertex="1">
          <mxGeometry y="50" width="160" height="110" as="geometry" />
        </mxCell>
        <mxCell id="jaV6gS-NNXWnODVbYKLH-95" value="MHistory" style="swimlane;childLayout=stackLayout;horizontal=1;startSize=50;horizontalStack=0;rounded=1;fontSize=14;fontStyle=0;strokeWidth=2;resizeParent=0;resizeLast=1;shadow=0;dashed=0;align=center;arcSize=4;whiteSpace=wrap;html=1;" parent="1" vertex="1">
          <mxGeometry x="-780" y="380" width="160" height="160" as="geometry" />
        </mxCell>
        <mxCell id="jaV6gS-NNXWnODVbYKLH-96" value="+history_id int&lt;br&gt;&lt;br&gt;+patient_id int&lt;br&gt;&lt;br&gt;+medicine_id int&lt;br&gt;&lt;br&gt;+test_id int" style="align=left;strokeColor=none;fillColor=none;spacingLeft=4;fontSize=12;verticalAlign=top;resizable=0;rotatable=0;part=1;html=1;" parent="jaV6gS-NNXWnODVbYKLH-95" vertex="1">
          <mxGeometry y="50" width="160" height="110" as="geometry" />
        </mxCell>
        <mxCell id="jaV6gS-NNXWnODVbYKLH-91" value="Result" style="swimlane;childLayout=stackLayout;horizontal=1;startSize=50;horizontalStack=0;rounded=1;fontSize=14;fontStyle=0;strokeWidth=2;resizeParent=0;resizeLast=1;shadow=0;dashed=0;align=center;arcSize=4;whiteSpace=wrap;html=1;" parent="1" vertex="1">
          <mxGeometry x="-390" y="170" width="160" height="150" as="geometry" />
        </mxCell>
        <mxCell id="jaV6gS-NNXWnODVbYKLH-92" value="+result_id int&lt;br&gt;&lt;br&gt;+test_id int&lt;br&gt;&lt;br&gt;+result varchar2(50)" style="align=left;strokeColor=none;fillColor=none;spacingLeft=4;fontSize=12;verticalAlign=top;resizable=0;rotatable=0;part=1;html=1;" parent="jaV6gS-NNXWnODVbYKLH-91" vertex="1">
          <mxGeometry y="50" width="160" height="100" as="geometry" />
        </mxCell>
        <mxCell id="jaV6gS-NNXWnODVbYKLH-108" style="edgeStyle=orthogonalEdgeStyle;rounded=0;orthogonalLoop=1;jettySize=auto;html=1;exitX=0;exitY=0.25;exitDx=0;exitDy=0;entryX=1.01;entryY=0.679;entryDx=0;entryDy=0;entryPerimeter=0;" parent="1" source="jaV6gS-NNXWnODVbYKLH-87" target="jaV6gS-NNXWnODVbYKLH-85" edge="1">
          <mxGeometry relative="1" as="geometry">
            <mxPoint x="-590" y="140" as="targetPoint" />
          </mxGeometry>
        </mxCell>
        <mxCell id="H7BS5052k_93Vw-LGjeF-1" value="" style="edgeStyle=entityRelationEdgeStyle;fontSize=12;html=1;endArrow=ERoneToMany;rounded=0;exitX=1.003;exitY=0.808;exitDx=0;exitDy=0;exitPerimeter=0;entryX=-0.011;entryY=0.138;entryDx=0;entryDy=0;entryPerimeter=0;" edge="1" parent="1" source="jaV6gS-NNXWnODVbYKLH-85" target="jaV6gS-NNXWnODVbYKLH-94">
          <mxGeometry width="100" height="100" relative="1" as="geometry">
            <mxPoint x="-630" y="370" as="sourcePoint" />
            <mxPoint x="-530" y="270" as="targetPoint" />
          </mxGeometry>
        </mxCell>
        <mxCell id="H7BS5052k_93Vw-LGjeF-3" value="" style="edgeStyle=entityRelationEdgeStyle;fontSize=12;html=1;endArrow=ERoneToMany;rounded=0;exitX=1.003;exitY=0.948;exitDx=0;exitDy=0;exitPerimeter=0;entryX=0.002;entryY=0.134;entryDx=0;entryDy=0;entryPerimeter=0;" edge="1" parent="1" source="jaV6gS-NNXWnODVbYKLH-85" target="jaV6gS-NNXWnODVbYKLH-89">
          <mxGeometry width="100" height="100" relative="1" as="geometry">
            <mxPoint x="-580" y="380" as="sourcePoint" />
            <mxPoint x="-250" y="443" as="targetPoint" />
          </mxGeometry>
        </mxCell>
        <mxCell id="H7BS5052k_93Vw-LGjeF-4" value="" style="edgeStyle=entityRelationEdgeStyle;fontSize=12;html=1;endArrow=ERoneToMany;rounded=0;entryX=1;entryY=0.5;entryDx=0;entryDy=0;exitX=-0.037;exitY=0.145;exitDx=0;exitDy=0;exitPerimeter=0;" edge="1" parent="1" source="jaV6gS-NNXWnODVbYKLH-89" target="jaV6gS-NNXWnODVbYKLH-92">
          <mxGeometry width="100" height="100" relative="1" as="geometry">
            <mxPoint x="-270" y="470" as="sourcePoint" />
            <mxPoint x="-20" y="330" as="targetPoint" />
          </mxGeometry>
        </mxCell>
        <mxCell id="H7BS5052k_93Vw-LGjeF-5" value="" style="edgeStyle=entityRelationEdgeStyle;fontSize=12;html=1;endArrow=ERoneToMany;rounded=0;exitX=-0.025;exitY=0.079;exitDx=0;exitDy=0;exitPerimeter=0;entryX=-0.019;entryY=0.391;entryDx=0;entryDy=0;entryPerimeter=0;" edge="1" parent="1" source="jaV6gS-NNXWnODVbYKLH-85" target="jaV6gS-NNXWnODVbYKLH-96">
          <mxGeometry width="100" height="100" relative="1" as="geometry">
            <mxPoint x="-580" y="370" as="sourcePoint" />
            <mxPoint x="-480" y="270" as="targetPoint" />
          </mxGeometry>
        </mxCell>
      </root>
    </mxGraphModel>
  </diagram>
</mxfile>
